<svg width="312" height="119" viewBox="0 0 312 119" fill="none" xmlns="http://www.w3.org/2000/svg">
<g clip-path="url(#clip0_191_1682)">
<path d="M245.654 65.5815V57.9774H311.975L311.994 65.5725L245.654 65.5815Z" fill="#3AAF4A"/>
<path d="M245.654 95.1109V87.5338H311.975L312.001 95.1229L245.654 95.1109Z" fill="#3AAF4A"/>
<path d="M245.654 80.3282V72.7541H311.975L311.994 80.3432L245.654 80.3282Z" fill="#3AAF4A"/>
<path d="M84.1953 95.111V44.9354H229.155V95.123L84.1953 95.111Z" fill="#3AAF4A"/>
<path d="M204.819 7.52319L204.736 9.55754C204.615 12.3918 204.461 15.5827 206.109 17.0418C206.736 17.5871 207.542 17.8837 208.665 17.8837C213.608 17.8837 217.674 14.5041 217.674 10.3305C217.674 6.76518 213.694 3.82901 208.825 3.82901C206.646 3.82901 204.803 5.5248 204.819 7.52319ZM205.626 25.0623V35.1502C205.766 35.4408 208.591 36.4535 210.805 36.4535C214.75 36.4535 218.976 34.4191 218.976 31.0305C218.976 26.2997 214.427 22.4377 208.825 22.4377C207.113 22.4377 205.626 23.6122 205.626 25.0623ZM184.94 41.6756C193.187 34.8925 198.008 26.3297 198.162 19.4476C198.284 11.4541 195.318 5.83339 187.909 0.680115H218.665C222.904 0.680115 227.182 2.82532 227.182 6.30378V12.5746C227.182 15.8973 220.774 19.4476 220.774 19.4476C220.774 19.4476 224.526 22.0662 225.883 23.4594C228.247 25.8653 229.287 27.8607 229.287 30.9916C229.287 36.5284 222.924 41.6756 217.786 41.6756H184.94Z" fill="#3AAF4A"/>
<path d="M169.853 36.6812L169.69 36.4624L169.99 36.4535C180.208 34.8116 183.91 26.5843 183.91 19.4476C183.91 13.6442 182.585 3.79905 173.826 3.79905C170.544 3.79905 168.899 6.60039 168.912 12.0832L168.899 13.3176C168.874 15.5857 168.832 17.2335 170.179 19.3817L170.333 19.5825H159.871L160.009 19.3817C162.063 15.7984 162.991 13.3955 162.991 9.26991C162.991 5.43791 160.751 3.34064 157.037 0.305602L156.72 0H165.358C170.035 0 174.108 0 179.818 0.326574C189.988 1.01268 194.297 12.0533 194.064 19.2529C193.702 29.4636 181.626 41.6756 177.051 41.6756C173.676 41.6756 169.99 36.8729 169.853 36.6812Z" fill="#3AAF4A"/>
<path d="M139.857 10.5073C139.857 13.7101 141.073 15.6546 143.127 18.45C143.908 17.9077 149.282 13.9408 149.282 9.95304C149.282 7.64006 147.619 5.21921 144.794 5.21921C141.582 5.21921 139.857 7.95465 139.857 10.5073ZM158.048 41.8195C152.28 41.8195 148.111 35.0004 145.977 30.6291C144.042 26.6952 139.605 25.0623 136.29 23.6392C138.635 22.255 140.219 21.455 142.228 19.7622L131.972 19.7263V5.7675C129.063 7.69698 126.642 9.79724 124.719 11.0167C123.945 6.40567 118.858 3.67623 113.221 3.67623C102.293 3.67623 95.3028 12.3919 95.3028 21.3532C95.3028 30.5542 103.262 38.6137 114.498 39.0691C123.865 39.3657 138.402 31.7077 142.023 31.7077C142.023 31.7077 143.428 32.951 143.927 33.784C145.782 36.8729 147.036 39.108 149.922 41.8195H103.403C91.3647 41.8195 84.592 31.6028 84.592 21.7037C84.592 10.732 93.8728 0.533325 107.216 0.533325H120.915C125.516 0.533325 128.315 1.48009 131.972 3.67623C132.327 2.79238 131.972 2.20514 131.972 1.21344H150.821C156.295 1.21344 159.769 5.62968 159.769 10.1298C159.769 13.9408 158.445 16.4546 155.044 19.0702C153.419 20.3555 150.821 22.3688 150.821 22.3688C150.859 24.2324 165.316 37.3104 170.841 41.8195H158.048Z" fill="#3AAF4A"/>
<path d="M0 65.5815V57.9774H65.973V65.5725L0 65.5815Z" fill="#3AAF4A"/>
<path d="M0 95.1109V87.5338H65.973L65.9922 95.1229L0 95.1109Z" fill="#3AAF4A"/>
<path d="M0 80.3282V72.7541H65.973V80.3432L0 80.3282Z" fill="#3AAF4A"/>
<path d="M69.4504 107.982H64.3189L62.8089 118.831H59.2803L60.7807 107.982L55.6428 107.967L55.9787 105.549L69.8023 105.531" fill="white"/>
<path d="M73.8909 111.185H73.9197C74.9627 110.124 76.0056 109.654 77.1829 109.66C78.936 109.66 80.5612 110.667 80.2317 113.099L79.4319 118.828H76.4183L77.1285 113.684C77.3108 112.356 76.7638 111.745 75.836 111.739C75.129 111.739 74.4668 112.15 73.6158 113.099L72.8512 118.828H69.812L71.6451 105.549H74.6747" fill="white"/>
<path d="M89.5444 113.291C89.5796 112.084 88.8918 111.347 87.7369 111.332C86.5372 111.332 85.6798 112.069 85.3727 113.315L89.5444 113.291ZM91.4223 117.812C89.5444 118.993 87.7049 118.993 86.9595 118.993C83.6068 118.993 81.6489 117.168 82.0456 114.364C82.4327 111.619 84.8033 109.66 87.7433 109.66C90.5393 109.66 92.5932 111.521 92.0046 114.786H85.104C84.9952 116.392 86.0285 117.321 87.9288 117.321C89.1317 117.321 90.1203 116.994 91.659 116.036" fill="white"/>
<path d="M102.504 116.341C103.08 116.884 103.585 117.108 104.2 117.108C105.604 117.108 106.634 116.078 106.9 114.28C107.162 112.356 106.167 111.545 104.923 111.545C104.34 111.545 103.861 111.724 103.086 112.195L102.504 116.341ZM103.326 110.349C104.366 109.825 104.974 109.66 105.895 109.66C108.678 109.66 110.345 111.545 109.949 114.298C109.568 117.081 107.444 118.996 104.827 118.996C103.873 118.996 103.019 118.705 102.261 118.136L102.168 118.828H99.1482L100.988 105.528H104.005" fill="white"/>
<path d="M117.07 114.466C115.189 115.077 114.28 115.472 114.159 116.365C114.107 116.902 114.472 117.327 114.994 117.327C115.566 117.327 116.212 117.078 116.779 116.641L117.07 114.466ZM121.2 118.181C120.317 118.648 119.092 118.993 118.269 118.993C117.287 118.993 116.833 118.705 116.718 117.98C115.464 118.729 114.472 118.993 113.416 118.993C111.89 118.993 110.889 117.935 111.049 116.815C111.337 114.648 113.077 114.226 117.262 113.058C117.422 112.216 117.118 111.548 115.8 111.548C114.597 111.548 113.141 112.15 112.066 113.058L112.396 110.769C113.73 110.055 115.169 109.66 116.686 109.66C119.104 109.66 120.643 110.424 120.362 112.404L119.808 116.488C119.757 116.946 119.895 117.108 120.224 117.108C120.429 117.108 120.662 117.078 121.456 116.593" fill="white"/>
<path d="M126.466 111.143C127.566 110.103 128.565 109.66 129.787 109.66C131.284 109.66 133.178 110.469 132.803 113.12L132.01 118.828H129.003L129.745 113.357C129.931 112.078 129.348 111.545 128.504 111.545C127.742 111.545 127.138 111.934 126.204 113.043L125.404 118.828H122.387L123.615 109.84H126.642" fill="white"/>
<path d="M138.216 114.298H138.258L142.602 109.84H146.15L141.774 114.298L145.075 118.828H141.348L138.248 114.4H138.216L137.586 118.828H134.569L136.409 105.543H139.438" fill="white"/>
<path d="M159.657 111.769H156.17L155.645 115.472C155.527 116.344 155.994 116.908 156.941 116.908C157.552 116.908 158.147 116.767 159.027 116.392L158.739 118.43C157.613 118.846 156.791 118.993 155.876 118.993C153.876 118.993 152.267 118.136 152.6 115.637L153.134 111.769H151.765L151.838 111.239L156.445 107.02L156.791 107.026L156.429 109.843H159.926" fill="white"/>
<path d="M164.35 111.185H164.398C165.419 110.133 166.468 109.66 167.652 109.66C169.383 109.66 171.024 110.667 170.71 113.099L169.901 118.828H166.887L167.594 113.684C167.777 112.356 167.233 111.745 166.305 111.745C165.601 111.745 164.929 112.15 164.094 113.099L163.307 118.828H160.291L162.124 105.549H165.144" fill="white"/>
<path d="M178.119 114.475C176.245 115.08 175.346 115.472 175.214 116.377C175.141 116.902 175.506 117.327 176.062 117.327C176.641 117.327 177.265 117.081 177.828 116.641L178.119 114.475ZM182.278 118.181C181.366 118.648 180.151 118.996 179.332 118.996C178.327 118.996 177.895 118.705 177.783 117.98C176.513 118.729 175.506 118.996 174.469 118.996C172.94 118.996 171.935 117.935 172.095 116.815C172.402 114.648 174.146 114.226 178.305 113.058C178.5 112.207 178.171 111.545 176.875 111.545C175.659 111.545 174.207 112.147 173.109 113.058L173.429 110.769C174.783 110.049 176.235 109.66 177.732 109.66C180.157 109.66 181.69 110.421 181.424 112.401L180.855 116.497C180.81 116.949 180.963 117.111 181.27 117.123C181.482 117.111 181.718 117.081 182.493 116.593" fill="white"/>
<path d="M191.565 109.843H188.065L188.459 107.026H188.069L183.481 111.236L183.411 111.769H184.786L184.246 115.637C183.91 118.136 185.493 118.993 187.509 118.993C188.437 118.993 189.243 118.846 190.385 118.43L190.657 116.392C189.793 116.767 189.192 116.908 188.574 116.908C187.627 116.908 187.173 116.356 187.282 115.472L187.803 111.769H191.29" fill="white"/>
<path d="M200.753 118.828H197.73L199.589 105.549H202.583L200.753 118.828Z" fill="white"/>
<path d="M208.185 106.925C208.076 107.796 207.222 108.489 206.297 108.489C205.402 108.489 204.736 107.781 204.858 106.925C204.983 106.074 205.818 105.367 206.736 105.367C207.657 105.367 208.306 106.074 208.185 106.925ZM206.393 118.828H203.393L204.621 109.846H207.644" fill="white"/>
<path d="M216.452 112.332C215.249 111.577 213.982 111.347 213.361 111.347C212.997 111.347 212.28 111.422 212.2 112.051C212.069 113.043 216.829 113.09 216.4 116.078C216.145 117.95 214.596 118.993 212.098 118.993C210.54 118.993 209.151 118.549 208.745 118.343L209.02 116.344C209.957 116.737 210.885 117.111 212.027 117.111C212.913 117.111 213.534 116.857 213.569 116.44C213.739 115.143 208.969 115.391 209.356 112.449C209.589 110.781 211.343 109.666 213.72 109.666C214.922 109.666 215.805 109.861 216.727 110.334" fill="white"/>
<path d="M225.71 111.769H222.223L221.701 115.472C221.589 116.356 222.037 116.908 222.981 116.908C223.611 116.908 224.209 116.785 225.054 116.392L224.785 118.43C223.669 118.846 222.863 118.993 221.925 118.993C219.919 118.993 218.297 118.154 218.656 115.637L219.196 111.769H217.827L217.901 111.239L222.479 107.02H222.863L222.466 109.843H225.982" fill="white"/>
<path d="M233.932 113.309C233.977 112.096 233.298 111.353 232.131 111.353C230.944 111.353 230.058 112.069 229.754 113.309H233.932ZM235.813 117.806C233.893 118.999 232.099 118.999 231.35 118.999C227.981 118.999 226.046 117.168 226.433 114.37C226.817 111.631 229.197 109.66 232.14 109.66C234.943 109.66 236.987 111.524 236.382 114.78L229.511 114.789C229.383 116.392 230.406 117.327 232.303 117.327C233.522 117.327 234.508 116.997 236.056 116.042" fill="white"/>
<path d="M241.859 111.143C242.963 110.103 243.958 109.66 245.199 109.66C246.693 109.66 248.578 110.469 248.197 113.12L247.423 118.828H244.419L245.164 113.357C245.35 112.096 244.761 111.545 243.916 111.545C243.171 111.545 242.55 111.934 241.607 113.043L240.813 118.828H237.787L239.028 109.84H242.035" fill="white"/>
<path d="M257.423 112.332C256.211 111.568 254.947 111.347 254.346 111.347C253.962 111.347 253.245 111.422 253.162 112.051C253.037 113.043 257.794 113.09 257.388 116.078C257.123 117.95 255.558 118.993 253.06 118.993C251.511 118.993 250.104 118.549 249.72 118.343L249.992 116.344C250.913 116.737 251.838 117.12 253.008 117.111C253.879 117.111 254.486 116.857 254.534 116.44C254.72 115.143 249.908 115.391 250.318 112.449C250.545 110.769 252.327 109.666 254.691 109.666C255.894 109.666 256.764 109.861 257.698 110.334" fill="white"/>
<path d="M142.769 79.4264H130.126L128.062 84.6605H119.428L131.732 57.9803H142.244L154.561 84.6605H144.826L142.769 79.4264ZM165.636 64.1972H165.569V84.6605H157.776V57.9803H169.901L180.324 77.8444L180.397 77.7665V57.9803H188.161V84.6605H176.235L165.636 64.1972ZM203.069 70.4411H203.009V84.6605L194.355 84.6785V57.9803H203.009V69.6951H203.082L212.974 57.9803H223.179L212.44 69.725L224.117 84.6605H213.361L203.069 70.4411ZM90.8271 84.6605V57.9803H105.706C111.58 58.0103 116.539 60.2873 116.539 64.9343C116.539 68.227 113.292 70.2314 109.827 70.7856V70.8845C113.941 71.3669 117.31 73.596 117.319 77.392C117.319 85.1399 105.706 84.6605 105.454 84.6605H90.8271ZM99.4585 63.1426V68.6075L103.861 68.5416C106.199 68.5416 107.696 67.7776 107.696 65.7462C107.674 64.2062 106.177 63.1546 104.155 63.1426H99.4585ZM99.4585 79.4743H104.484C106.676 79.4743 108.291 78.3478 108.291 76.6939C108.307 75.2229 107.053 73.8117 105.086 73.6978H99.4585V79.4743ZM132.295 74.2701H140.635L136.668 63.1906H136.511L132.295 74.2701Z" fill="white"/>
</g>
<defs>
<clipPath id="clip0_191_1682">
<rect width="312" height="119" fill="white"/>
</clipPath>
</defs>
</svg>
